<svg width="8" height="15" viewBox="0 0 8 15" fill="none" xmlns="http://www.w3.org/2000/svg">
<path d="M7.49797 13.5509L1.38532 7.28018L7.49797 1.00945C7.6074 0.897411 7.66867 0.74701 7.66867 0.590395C7.66867 0.433781 7.6074 0.28338 7.49797 0.171343C7.44482 0.117095 7.38137 0.0739975 7.31136 0.044576C7.24134 0.0151545 7.16616 -2.20203e-08 7.09021 -2.53401e-08C7.01426 -2.86599e-08 6.93908 0.0151544 6.86906 0.0445759C6.79904 0.0739974 6.7356 0.117095 6.68245 0.171343L0.17835 6.84231C0.0641592 6.95946 0.000250328 7.11658 0.000250321 7.28018C0.000250314 7.44378 0.0641592 7.6009 0.17835 7.71805L6.68119 14.389C6.73438 14.4437 6.79798 14.4871 6.86823 14.5167C6.93848 14.5464 7.01396 14.5616 7.09021 14.5616C7.16646 14.5616 7.24193 14.5464 7.31218 14.5167C7.38243 14.4871 7.44603 14.4437 7.49922 14.389C7.60866 14.277 7.66992 14.1266 7.66992 13.97C7.66992 13.8134 7.60866 13.663 7.49922 13.5509L7.49797 13.5509Z" fill="#80233A"/>
</svg>
