<svg width="34" height="23" viewBox="0 0 34 23" fill="none" xmlns="http://www.w3.org/2000/svg">
<path fill-rule="evenodd" clip-rule="evenodd" d="M25.693 7.52937C25.4806 7.52963 25.3086 7.7016 25.3086 7.91408V11.659C25.3086 11.8712 25.4806 12.0434 25.693 12.0434H30.9816C31.1257 12.0434 31.2574 11.9632 31.3234 11.8352C31.3894 11.7072 31.3784 11.5533 31.2952 11.436L28.6315 7.69115C28.5593 7.58973 28.4426 7.52937 28.3182 7.52937L25.693 7.52937ZM26.0778 8.2985H28.1196L30.236 11.274H26.0774V8.2985H26.0778Z" fill="#80233A"/>
<path fill-rule="evenodd" clip-rule="evenodd" d="M2.68022 0.314034C1.54839 0.314034 0.620117 1.2423 0.620117 2.37414V15.724C0.620117 16.8558 1.54839 17.7841 2.68022 17.7841H5.37135C5.62863 19.2092 6.87851 20.2974 8.37792 20.2974C9.8765 20.2974 11.1278 19.2098 11.3853 17.7841H25.444C25.7015 19.2095 26.9538 20.2974 28.4513 20.2974C29.9489 20.2974 31.2012 19.2095 31.4587 17.7841H32.0723C32.9657 17.7841 33.6959 17.0496 33.6959 16.1602V11.2386H33.6962C33.7035 11.1836 33.6984 11.1276 33.6817 11.0747C33.6796 11.0667 33.6772 11.0589 33.6742 11.0511H33.6734C33.6734 11.0511 33.6734 11.0508 33.6731 11.0508C33.656 11.002 33.6289 10.9575 33.5937 10.9194L29.4582 5.18116V5.18089C29.386 5.08083 29.2701 5.02127 29.1465 5.02127L23.783 5.01778V2.37549C23.783 1.24365 22.8548 0.315383 21.7229 0.315383H2.68024L2.68022 0.314034ZM2.68022 1.08317H21.7229C22.4363 1.08317 23.0139 1.6605 23.0139 2.37414V17.0152H11.4256C11.3092 15.4342 9.98494 14.1816 8.37799 14.1816C6.77124 14.1816 5.44676 15.4342 5.33035 17.0152H2.68029C1.96692 17.0152 1.38932 16.4378 1.38932 15.7242V2.37434C1.38932 1.6607 1.96666 1.08338 2.68029 1.08338L2.68022 1.08317ZM23.7833 5.78557L28.9496 5.78906L32.9273 11.3081V16.1601C32.9273 16.6299 32.5461 17.0148 32.0729 17.0148H31.4996C31.3831 15.4338 30.0587 14.1812 28.4519 14.1812C26.8452 14.1812 25.5207 15.4338 25.4043 17.0148H23.7833L23.7833 5.78557ZM8.37854 14.9508C9.64505 14.9508 10.6653 15.9706 10.6653 17.2416V17.2845C10.6423 18.5307 9.63221 19.5284 8.37854 19.5284C7.11175 19.5284 6.09578 18.5122 6.09172 17.2491V17.2427C6.09172 15.9715 7.11195 14.9519 8.37854 14.9519V14.9508ZM28.4521 14.9508C29.7186 14.9508 30.7389 15.9706 30.7389 17.2416C30.7389 18.5084 29.7187 19.5284 28.4521 19.5284C27.1856 19.5284 26.1653 18.5082 26.1653 17.2416C26.1653 15.9705 27.1855 14.9508 28.4521 14.9508Z" fill="#80233A"/>
<path fill-rule="evenodd" clip-rule="evenodd" d="M12.9047 6.08916C12.8017 6.08755 12.7024 6.12752 12.6292 6.19969C12.556 6.27213 12.5146 6.37059 12.5146 6.4736C12.5146 6.57662 12.556 6.67535 12.6292 6.74752C12.7024 6.81995 12.8017 6.85966 12.9047 6.85832H20.4478C20.5508 6.85966 20.65 6.81995 20.7233 6.74752C20.7968 6.67535 20.8378 6.57662 20.8378 6.4736C20.8378 6.37059 20.7968 6.27213 20.7233 6.19969C20.65 6.12752 20.5508 6.08755 20.4478 6.08916H12.9047Z" fill="#80233A"/>
<path fill-rule="evenodd" clip-rule="evenodd" d="M9.45355 9.54028C9.35053 9.53867 9.25127 9.57865 9.17803 9.65108C9.10479 9.72325 9.06348 9.82198 9.06348 9.92473C9.06348 10.0277 9.10479 10.1265 9.17803 10.1986C9.25127 10.2711 9.35053 10.3108 9.45355 10.3094H20.4477C20.5507 10.3108 20.65 10.2711 20.7232 10.1986C20.7968 10.1265 20.8378 10.0277 20.8378 9.92473C20.8378 9.82198 20.7968 9.72325 20.7232 9.65108C20.65 9.57865 20.5507 9.53868 20.4477 9.54028H9.45355Z" fill="#80233A"/>
<path fill-rule="evenodd" clip-rule="evenodd" d="M2.31195 22.1381C2.20893 22.1365 2.10967 22.1765 2.03643 22.2487C1.96319 22.3211 1.92188 22.4195 1.92188 22.5226C1.92188 22.6256 1.96319 22.7243 2.03643 22.7965C2.10967 22.8689 2.20893 22.9086 2.31195 22.9073H31.5302C31.6332 22.9086 31.7324 22.8689 31.8057 22.7965C31.8792 22.7243 31.9202 22.6256 31.9202 22.5226C31.9202 22.4195 31.8792 22.3211 31.8057 22.2487C31.7324 22.1765 31.6332 22.1365 31.5302 22.1381H2.31195Z" fill="#80233A"/>
</svg>
