<svg width="49" height="50" viewBox="0 0 49 50" fill="none" xmlns="http://www.w3.org/2000/svg">
<path fill-rule="evenodd" clip-rule="evenodd" d="M32.693 17.5294C32.4806 17.5296 32.3086 17.7016 32.3086 17.9141V21.659C32.3086 21.8712 32.4806 22.0434 32.693 22.0434H37.9816C38.1257 22.0434 38.2574 21.9632 38.3234 21.8352C38.3894 21.7072 38.3784 21.5533 38.2952 21.436L35.6315 17.6911C35.5593 17.5897 35.4426 17.5294 35.3182 17.5294L32.693 17.5294ZM33.0778 18.2985H35.1196L37.236 21.274H33.0774V18.2985H33.0778Z" fill="#80233A"/>
<path fill-rule="evenodd" clip-rule="evenodd" d="M9.68022 10.314C8.54839 10.314 7.62012 11.2423 7.62012 12.3741V25.724C7.62012 26.8558 8.54839 27.7841 9.68022 27.7841H12.3713C12.6286 29.2092 13.8785 30.2974 15.3779 30.2974C16.8765 30.2974 18.1278 29.2098 18.3853 27.7841H32.444C32.7015 29.2095 33.9538 30.2974 35.4513 30.2974C36.9489 30.2974 38.2012 29.2095 38.4587 27.7841H39.0723C39.9657 27.7841 40.6959 27.0496 40.6959 26.1602V21.2386H40.6962C40.7035 21.1836 40.6984 21.1276 40.6817 21.0747C40.6796 21.0667 40.6772 21.0589 40.6742 21.0511H40.6734C40.6734 21.0511 40.6734 21.0508 40.6731 21.0508C40.656 21.002 40.6289 20.9575 40.5937 20.9194L36.4582 15.1812V15.1809C36.386 15.0808 36.2701 15.0213 36.1465 15.0213L30.783 15.0178V12.3755C30.783 11.2437 29.8548 10.3154 28.7229 10.3154H9.68024L9.68022 10.314ZM9.68022 11.0832H28.7229C29.4363 11.0832 30.0139 11.6605 30.0139 12.3741V27.0152H18.4256C18.3092 25.4342 16.9849 24.1816 15.378 24.1816C13.7712 24.1816 12.4468 25.4342 12.3303 27.0152H9.68029C8.96692 27.0152 8.38932 26.4378 8.38932 25.7242V12.3743C8.38932 11.6607 8.96666 11.0834 9.68029 11.0834L9.68022 11.0832ZM30.7833 15.7856L35.9496 15.7891L39.9273 21.3081V26.1601C39.9273 26.6299 39.5461 27.0148 39.0729 27.0148H38.4996C38.3831 25.4338 37.0587 24.1812 35.4519 24.1812C33.8452 24.1812 32.5207 25.4338 32.4043 27.0148H30.7833L30.7833 15.7856ZM15.3785 24.9508C16.6451 24.9508 17.6653 25.9706 17.6653 27.2416V27.2845C17.6423 28.5307 16.6322 29.5284 15.3785 29.5284C14.1117 29.5284 13.0958 28.5122 13.0917 27.2491V27.2427C13.0917 25.9715 14.112 24.9519 15.3785 24.9519V24.9508ZM35.4521 24.9508C36.7186 24.9508 37.7389 25.9706 37.7389 27.2416C37.7389 28.5084 36.7187 29.5284 35.4521 29.5284C34.1856 29.5284 33.1653 28.5082 33.1653 27.2416C33.1653 25.9705 34.1855 24.9508 35.4521 24.9508Z" fill="#80233A"/>
<path fill-rule="evenodd" clip-rule="evenodd" d="M19.9047 16.0892C19.8017 16.0875 19.7024 16.1275 19.6292 16.1997C19.556 16.2721 19.5146 16.3706 19.5146 16.4736C19.5146 16.5766 19.556 16.6753 19.6292 16.7475C19.7024 16.82 19.8017 16.8597 19.9047 16.8583H27.4478C27.5508 16.8597 27.65 16.82 27.7233 16.7475C27.7968 16.6753 27.8378 16.5766 27.8378 16.4736C27.8378 16.3706 27.7968 16.2721 27.7233 16.1997C27.65 16.1275 27.5508 16.0876 27.4478 16.0892H19.9047Z" fill="#80233A"/>
<path fill-rule="evenodd" clip-rule="evenodd" d="M16.4536 19.5403C16.3505 19.5387 16.2513 19.5786 16.178 19.6511C16.1048 19.7233 16.0635 19.822 16.0635 19.9247C16.0635 20.0277 16.1048 20.1265 16.178 20.1986C16.2513 20.2711 16.3505 20.3108 16.4536 20.3094H27.4477C27.5507 20.3108 27.65 20.2711 27.7232 20.1986C27.7968 20.1265 27.8378 20.0277 27.8378 19.9247C27.8378 19.822 27.7968 19.7233 27.7232 19.6511C27.65 19.5786 27.5507 19.5387 27.4477 19.5403H16.4536Z" fill="#80233A"/>
<path fill-rule="evenodd" clip-rule="evenodd" d="M9.31195 32.1381C9.20893 32.1365 9.10967 32.1765 9.03643 32.2487C8.96319 32.3211 8.92188 32.4195 8.92188 32.5226C8.92188 32.6256 8.96319 32.7243 9.03643 32.7965C9.10967 32.8689 9.20893 32.9086 9.31195 32.9073H38.5302C38.6332 32.9086 38.7324 32.8689 38.8057 32.7965C38.8792 32.7243 38.9202 32.6256 38.9202 32.5226C38.9202 32.4195 38.8792 32.3211 38.8057 32.2487C38.7324 32.1765 38.6332 32.1365 38.5302 32.1381H9.31195Z" fill="#80233A"/>
</svg>
