<svg width="35" height="35" viewBox="0 0 35 35" fill="none" xmlns="http://www.w3.org/2000/svg">
<path d="M30.4949 13.4282V13.3882C30.4842 13.363 30.4796 13.3356 30.4816 13.3082H30.4683L28.5616 6.60154C28.4643 6.26925 28.2627 5.97707 27.9866 5.76817C27.7105 5.55928 27.3745 5.44476 27.0282 5.44154H7.29481C6.94859 5.44476 6.61259 5.55928 6.33646 5.76817C6.06034 5.97707 5.85874 6.26925 5.76147 6.60154L3.85479 13.2949H3.84146C3.8434 13.3223 3.83883 13.3497 3.82813 13.3749V15.5483C3.82768 16.3371 4.0222 17.1138 4.39439 17.8094C4.76659 18.5049 5.3049 19.0977 5.96147 19.5349V28.375C5.96147 28.7993 6.13004 29.2063 6.4301 29.5064C6.73016 29.8064 7.13713 29.975 7.56148 29.975H26.7616C27.1859 29.975 27.5929 29.8064 27.893 29.5064C28.193 29.2063 28.3616 28.7993 28.3616 28.375V19.5616C29.0181 19.1243 29.5565 18.5316 29.9287 17.836C30.3008 17.1405 30.4954 16.3638 30.4949 15.5749V13.4416V13.4282ZM6.78814 6.89488C6.82155 6.78554 6.88841 6.68943 6.97929 6.62006C7.07018 6.5507 7.18053 6.51158 7.29481 6.50821H27.0282C27.1425 6.51158 27.2529 6.5507 27.3438 6.62006C27.4346 6.68943 27.5015 6.78554 27.5349 6.89488L29.2549 12.9082H5.06813L6.78814 6.89488ZM13.4282 13.9749H20.8949V15.5749C20.8949 16.5651 20.5015 17.5147 19.8014 18.2148C19.1013 18.9149 18.1517 19.3083 17.1615 19.3083C16.1714 19.3083 15.2218 18.9149 14.5216 18.2148C13.8215 17.5147 13.4282 16.5651 13.4282 15.5749V13.9749ZM4.8948 15.5749V13.9749H12.3615V15.5749C12.358 16.564 11.9635 17.5115 11.2641 18.2109C10.5648 18.9103 9.61722 19.3048 8.62815 19.3083C8.00392 19.31 7.38936 19.1541 6.84147 18.8549C6.78874 18.8118 6.73044 18.7759 6.66814 18.7483C6.12489 18.4162 5.67635 17.9497 5.36574 17.3939C5.05514 16.8381 4.89294 16.2116 4.8948 15.5749ZM27.2949 28.375C27.2949 28.5164 27.2387 28.6521 27.1387 28.7521C27.0387 28.8521 26.903 28.9083 26.7616 28.9083H7.56148C7.42003 28.9083 7.28437 28.8521 7.18435 28.7521C7.08433 28.6521 7.02814 28.5164 7.02814 28.375V20.0949C7.54057 20.2827 8.0824 20.3775 8.62815 20.3749C9.50949 20.375 10.3738 20.1325 11.1265 19.6739C11.8791 19.2152 12.4909 18.5583 12.8948 17.7749C13.2986 18.5584 13.9104 19.2156 14.663 19.6744C15.4157 20.1332 16.2801 20.376 17.1615 20.376C18.043 20.376 18.9074 20.1332 19.66 19.6744C20.4126 19.2156 21.0244 18.5584 21.4282 17.7749C21.8322 18.5583 22.444 19.2152 23.1966 19.6739C23.9492 20.1325 24.8136 20.375 25.6949 20.3749C26.2407 20.3775 26.7825 20.2827 27.2949 20.0949V28.375ZM27.6549 18.7483C27.5926 18.7759 27.5343 18.8118 27.4816 18.8549C26.9337 19.1541 26.3191 19.31 25.6949 19.3083C24.7058 19.3048 23.7583 18.9103 23.0589 18.2109C22.3595 17.5115 21.9651 16.564 21.9615 15.5749V13.9749H29.4283V15.5749C29.4301 16.2116 29.2679 16.8381 28.9573 17.3939C28.6467 17.9497 28.1982 18.4162 27.6549 18.7483Z" fill="#707070"/>
</svg>
